# xmcd
#
# Track frame offsets: 
#        150
#        15518
#        29329
#        46566
#        63890
#        76805
#        91325
#        107201
#        121194
#        137215
#        148892
#        165892
#
# Disc length: 2465 seconds
#
# Revision: 3
# Processed by: cddbd v1.5.2PL0 Copyright (c) Steve Scherf et al.
# Submitted via: ExactAudioCopy v0.95b4
#
DISCID=8d099f0c
DTITLE=George Jones - The Rock: Stone Cold Country
DYEAR=2001
DGENRE=Country
TTITLE0=The Rock
TTITLE1=Beer Run (B Double E Double Are You In) (Duet With Garth Brook
TTITLE1=s)
TTITLE2=Wood And Wire
TTITLE3=50,000 Names
TTITLE4=The Man He Was
TTITLE5=I Got Everything
TTITLE6=Half Over You
TTITLE7=I Am
TTITLE8=Honey Hush
TTITLE9=Around Here
TTITLE10=What I Didn't Do
TTITLE11=Tramp On Your Street
EXTD=
EXTT0=
EXTT1=
EXTT2=
EXTT3=
EXTT4=
EXTT5=
EXTT6=
EXTT7=
EXTT8=
EXTT9=
EXTT10=
EXTT11=
PLAYORDER=
